P2
10 10
255
135 135 135 136 134 132 133 135 137 138 
133 133 133 135 134 132 132 132 134 136 
130 130 131 132 132 132 131 131 133 134 
132 132 133 135 136 137 138 138 138 138 
140 140 141 141 141 141 140 140 139 138 
132 131 129 126 122 118 114 113 112 111 
 99  98  95  90  85  82  80  78  78  78 
 76  75  74  72  71  72  72  70  70  71 
 75  74  74  73  74  76  77  76  76  76 
 76  76  76  75  75  77  78  78  77  77