P2
10 10
255
137 137 137 136 138 129 138 134 140 136 
135 134 130 139 135 129 134 131 138 139 
127 132 129 134 131 133 130 125 130 129 
127 131 127 134 128 135 133 144 135 142 
143 142 143 150 148 154 153 149 149 149 
143 154 145 142 135 133 118 120 127 110 
 98  82  86  74  63  65  63  61  55  67 
 72  66  73  69  73  74  73  73  70  78 
 80  76  75  73  72  80  80  78  77  75 
 75  76  78  78  75  78  78  79  78  78 